<svg width="14" height="14" viewBox="0 0 14 14" fill="none" xmlns="http://www.w3.org/2000/svg">
    <path d="M7.47335 11.5093L7.15712 11.6147C7.45779 12.5167 8.21839 12.998 8.99645 12.9914C9.77778 12.9847 10.5365 12.4875 10.8406 11.5417C10.8514 11.508 10.8728 11.4787 10.9015 11.4579C10.9301 11.4371 10.9647 11.4261 11.0001 11.4263C11.0355 11.4265 11.0699 11.4379 11.0984 11.459C11.1268 11.4801 11.1478 11.5097 11.1583 11.5435L11.1584 11.5436C11.4698 12.5456 12.4029 13.1673 13.3327 13.1673C13.3769 13.1673 13.4193 13.1849 13.4505 13.2161C13.4818 13.2474 13.4993 13.2898 13.4993 13.334C13.4993 13.3782 13.4818 13.4206 13.4505 13.4518C13.4193 13.4831 13.3769 13.5007 13.3327 13.5007C12.5494 13.5007 11.7653 13.1189 11.2621 12.4608L10.9998 12.1177L10.7344 12.4585C9.84418 13.6016 8.14594 13.6112 7.25972 12.5025L6.99936 12.1768L6.73899 12.5025C5.86841 13.5915 4.21303 13.6014 3.31096 12.5168L3.02538 12.1735L2.77744 12.5449C2.61925 12.7819 2.41232 12.9824 2.17046 13.133C1.71693 13.4151 1.1821 13.5007 0.666016 13.5007C0.621812 13.5007 0.57942 13.4831 0.548165 13.4518C0.516909 13.4206 0.499349 13.3782 0.499349 13.334C0.499349 13.2898 0.516908 13.2474 0.548165 13.2161C0.579422 13.1849 0.621814 13.1673 0.666016 13.1673C1.15072 13.1673 1.61438 13.0862 1.99468 12.8497L1.99476 12.8497C2.36852 12.6172 2.67965 12.2212 2.83711 11.5539L2.51268 11.4773L2.83703 11.5542C2.84543 11.5187 2.8652 11.487 2.89332 11.4639C2.92144 11.4408 2.95636 11.4275 2.99275 11.4261C3.02914 11.4247 3.06499 11.4352 3.09481 11.4561C3.12464 11.477 3.14681 11.5071 3.15792 11.5417L3.15813 11.5417C3.46222 12.4876 4.22097 12.9846 5.00229 12.9911C5.78019 12.9977 6.5407 12.5166 6.84146 11.6151C6.8526 11.5821 6.87378 11.5535 6.90204 11.5331C6.93039 11.5128 6.96443 11.5018 6.99935 11.5018C7.03427 11.5018 7.06831 11.5128 7.09666 11.5331C7.12501 11.5535 7.14624 11.5823 7.15735 11.6154L7.47335 11.5093ZM7.47335 11.5093C7.44001 11.41 7.37632 11.3237 7.29127 11.2625C7.20622 11.2014 7.10411 11.1685 6.99935 11.1685C6.89459 11.1685 6.79248 11.2014 6.70743 11.2625C6.62238 11.3237 6.55869 11.41 6.52535 11.5093C6.02065 13.0228 4.03977 13.0653 3.49212 11.4895L11.2185 12.9206C11.7785 13.5017 12.5528 13.834 13.3327 13.834C13.4653 13.834 13.5925 13.7813 13.6862 13.6875C13.78 13.5938 13.8327 13.4666 13.8327 13.334C13.8327 13.2014 13.78 13.0742 13.6862 12.9804C13.5925 12.8867 13.4653 12.834 13.3327 12.834C12.544 12.834 11.7433 12.3027 11.4767 11.4447C11.4452 11.3432 11.3822 11.2544 11.2968 11.1912C11.2115 11.1279 11.1082 11.0935 11.002 11.0929C10.8957 11.0923 10.7921 11.1256 10.706 11.1879C10.62 11.2502 10.556 11.3382 10.5233 11.4393C10.0007 13.066 7.98335 13.0393 7.47335 11.5093ZM5.52136 2.71399L5.52136 2.71398C6.0739 1.75691 6.984 1.05852 8.05146 0.772472C9.11891 0.48642 10.2563 0.63613 11.2134 1.18867C12.1704 1.7412 12.8688 2.6513 13.1549 3.71876C13.4409 4.78621 13.2912 5.92358 12.7387 6.88065C12.7387 6.88065 12.7387 6.88066 12.7387 6.88066L12.572 7.16932L12.5719 7.16957C12.5609 7.18855 12.5464 7.20519 12.529 7.21853C12.5116 7.23187 12.4918 7.24166 12.4706 7.24734C12.4495 7.25302 12.4274 7.25447 12.4057 7.25161C12.384 7.24875 12.363 7.24164 12.3441 7.23068L12.344 7.23066L10.8895 6.39073L11.052 6.09936L12.0746 6.68998L12.3775 6.86486L12.5377 6.55401C12.902 5.84695 13.0375 5.04409 12.9254 4.2566C12.8133 3.46912 12.4591 2.73597 11.9119 2.15867L11.2368 1.44645L11.3385 2.42251C11.3765 2.78813 11.3741 3.15684 11.3311 3.52191C11.2645 4.0548 11.096 4.58264 10.7936 5.1803L10.592 5.06389V5.64132V5.64199V6.21896L9.30537 5.47599L9.01542 5.30856L8.84928 5.59925L7.26728 8.36725L7.01746 8.80435L7.51741 8.86367C8.52838 8.9836 9.44624 9.44949 10.1848 10.138C10.0854 10.1937 9.99176 10.2595 9.90551 10.3344C9.10866 9.61578 8.09447 9.16665 6.99935 9.16665C5.90415 9.16665 4.88995 9.61584 4.09263 10.3345C4.00652 10.2596 3.91306 10.1939 3.8138 10.1382C4.54342 9.45817 5.44799 8.99529 6.44405 8.86866L6.60895 8.8477L6.69142 8.70338L8.56209 5.43005L8.72676 5.1419L8.43934 4.97597L5.416 3.23064L5.41576 3.2305C5.39678 3.21956 5.38015 3.205 5.3668 3.18763C5.35346 3.17026 5.34367 3.15043 5.338 3.12928C5.33232 3.10812 5.33087 3.08606 5.33373 3.06434C5.33659 3.04263 5.3437 3.02169 5.35465 3.00272L5.35469 3.00266L5.52136 2.71399ZM7.33002 3.95067L7.60361 4.10861L7.77601 3.84389C8.12046 3.31495 8.46252 2.89018 8.88196 2.50817C9.23968 2.18853 9.62887 1.90596 10.0436 1.66481L10.7856 1.23329L9.94683 1.05093C9.18288 0.884842 8.38641 0.956186 7.66414 1.2554C6.94187 1.55462 6.32829 2.06742 5.9056 2.7251L6.18602 2.90532L6.01936 3.194L7.33002 3.95067ZM9.8927 5.43001L10.1861 5.5994L10.3507 5.30323C10.7353 4.61112 10.9302 4.04164 11.0008 3.47949L11.0008 3.479C11.0571 3.02546 11.0338 2.57012 10.9571 2.04944L10.8865 1.56982L10.464 1.80744C9.9039 2.12239 9.47351 2.42042 9.10701 2.75411C8.72638 3.10046 8.41038 3.48735 8.08583 3.97902L7.89085 4.27439L8.19737 4.45134L9.8927 5.43001Z" fill="#6A778B" stroke="#6A778B" stroke-width="0.666667"/>
</svg>
