<svg width="16" height="11" viewBox="0 0 16 11" fill="none" xmlns="http://www.w3.org/2000/svg">
    <path d="M0.0358596 0.313991C0.0852132 0.190949 0.181411 0.0925443 0.303301 0.0404127C0.425192 -0.011719 0.562797 -0.0133095 0.68586 0.0359909L2.44286 0.738991C2.80043 0.881992 3.19929 0.881992 3.55686 0.738991L4.57086 0.332991C5.1669 0.0945674 5.83182 0.0945674 6.42786 0.332991L7.44286 0.738991C7.80043 0.881992 8.19929 0.881992 8.55686 0.738991L9.57086 0.332991C10.1669 0.0945674 10.8318 0.0945674 11.4279 0.332991L12.4429 0.738991C12.8004 0.881992 13.1993 0.881992 13.5569 0.738991L15.3139 0.0359909C15.3751 0.0099561 15.4409 -0.003596 15.5074 -0.00387145C15.574 -0.00414689 15.6399 0.00885987 15.7013 0.0343869C15.7628 0.0599139 15.8185 0.0974475 15.8653 0.144789C15.912 0.19213 15.9488 0.248326 15.9736 0.310084C15.9984 0.371842 16.0105 0.437921 16.0094 0.504447C16.0083 0.570973 15.994 0.636609 15.9672 0.69751C15.9404 0.75841 15.9017 0.813348 15.8534 0.859107C15.8051 0.904866 15.7481 0.940523 15.6859 0.963991L13.9279 1.66699C13.3318 1.90541 12.6669 1.90541 12.0709 1.66699L11.0569 1.26099C10.6993 1.11799 10.3004 1.11799 9.94286 1.26099L8.92786 1.66699C8.33182 1.90541 7.6669 1.90541 7.07086 1.66699L6.05686 1.26099C5.69929 1.11799 5.30043 1.11799 4.94286 1.26099L3.92786 1.66699C3.33182 1.90541 2.6669 1.90541 2.07086 1.66699L0.31386 0.963991C0.190818 0.914637 0.092413 0.81844 0.0402813 0.696549C-0.0118504 0.574658 -0.0134408 0.437054 0.0358596 0.313991V0.313991ZM0.0358596 3.31399C0.0852132 3.19095 0.181411 3.09254 0.303301 3.04041C0.425192 2.98828 0.562797 2.98669 0.68586 3.03599L2.44286 3.73899C2.80043 3.88199 3.19929 3.88199 3.55686 3.73899L4.57086 3.33299C5.1669 3.09457 5.83182 3.09457 6.42786 3.33299L7.44286 3.73899C7.80043 3.88199 8.19929 3.88199 8.55686 3.73899L9.57086 3.33299C10.1669 3.09457 10.8318 3.09457 11.4279 3.33299L12.4429 3.73899C12.8004 3.88199 13.1993 3.88199 13.5569 3.73899L15.3139 3.03599C15.3751 3.00996 15.4409 2.9964 15.5074 2.99613C15.574 2.99585 15.6399 3.00886 15.7013 3.03439C15.7628 3.05991 15.8185 3.09745 15.8653 3.14479C15.912 3.19213 15.9488 3.24833 15.9736 3.31008C15.9984 3.37184 16.0105 3.43792 16.0094 3.50445C16.0083 3.57097 15.994 3.63661 15.9672 3.69751C15.9404 3.75841 15.9017 3.81335 15.8534 3.85911C15.8051 3.90487 15.7481 3.94052 15.6859 3.96399L13.9279 4.66699C13.3318 4.90541 12.6669 4.90541 12.0709 4.66699L11.0569 4.26099C10.6993 4.11799 10.3004 4.11799 9.94286 4.26099L8.92786 4.66699C8.33182 4.90541 7.6669 4.90541 7.07086 4.66699L6.05686 4.26099C5.69929 4.11799 5.30043 4.11799 4.94286 4.26099L3.92786 4.66699C3.33182 4.90541 2.6669 4.90541 2.07086 4.66699L0.31386 3.96399C0.190818 3.91464 0.092413 3.81844 0.0402813 3.69655C-0.0118504 3.57466 -0.0134408 3.43705 0.0358596 3.31399V3.31399ZM0.0358596 6.31399C0.0852132 6.19095 0.181411 6.09254 0.303301 6.04041C0.425192 5.98828 0.562797 5.98669 0.68586 6.03599L2.44286 6.73899C2.80043 6.88199 3.19929 6.88199 3.55686 6.73899L4.57086 6.33299C5.1669 6.09457 5.83182 6.09457 6.42786 6.33299L7.44286 6.73899C7.80043 6.88199 8.19929 6.88199 8.55686 6.73899L9.57086 6.33299C10.1669 6.09457 10.8318 6.09457 11.4279 6.33299L12.4429 6.73899C12.8004 6.88199 13.1993 6.88199 13.5569 6.73899L15.3139 6.03599C15.3751 6.00996 15.4409 5.9964 15.5074 5.99613C15.574 5.99585 15.6399 6.00886 15.7013 6.03439C15.7628 6.05991 15.8185 6.09745 15.8653 6.14479C15.912 6.19213 15.9488 6.24833 15.9736 6.31008C15.9984 6.37184 16.0105 6.43792 16.0094 6.50445C16.0083 6.57097 15.994 6.63661 15.9672 6.69751C15.9404 6.75841 15.9017 6.81335 15.8534 6.85911C15.8051 6.90487 15.7481 6.94052 15.6859 6.96399L13.9279 7.66699C13.3318 7.90541 12.6669 7.90541 12.0709 7.66699L11.0569 7.26099C10.6993 7.11799 10.3004 7.11799 9.94286 7.26099L8.92786 7.66699C8.33182 7.90541 7.6669 7.90541 7.07086 7.66699L6.05686 7.26099C5.69929 7.11799 5.30043 7.11799 4.94286 7.26099L3.92786 7.66699C3.33182 7.90541 2.6669 7.90541 2.07086 7.66699L0.31386 6.96399C0.190818 6.91464 0.092413 6.81844 0.0402813 6.69655C-0.0118504 6.57466 -0.0134408 6.43705 0.0358596 6.31399V6.31399ZM0.0358596 9.31399C0.0852132 9.19095 0.181411 9.09254 0.303301 9.04041C0.425192 8.98828 0.562797 8.98669 0.68586 9.03599L2.44286 9.73899C2.80043 9.88199 3.19929 9.88199 3.55686 9.73899L4.57086 9.33299C5.1669 9.09457 5.83182 9.09457 6.42786 9.33299L7.44286 9.73899C7.80043 9.88199 8.19929 9.88199 8.55686 9.73899L9.57086 9.33299C10.1669 9.09457 10.8318 9.09457 11.4279 9.33299L12.4429 9.73899C12.8004 9.88199 13.1993 9.88199 13.5569 9.73899L15.3139 9.03599C15.3751 9.00996 15.4409 8.9964 15.5074 8.99613C15.574 8.99585 15.6399 9.00886 15.7013 9.03439C15.7628 9.05991 15.8185 9.09745 15.8653 9.14479C15.912 9.19213 15.9488 9.24833 15.9736 9.31008C15.9984 9.37184 16.0105 9.43792 16.0094 9.50445C16.0083 9.57097 15.994 9.63661 15.9672 9.69751C15.9404 9.75841 15.9017 9.81335 15.8534 9.85911C15.8051 9.90486 15.7481 9.94052 15.6859 9.96399L13.9279 10.667C13.3318 10.9054 12.6669 10.9054 12.0709 10.667L11.0569 10.261C10.6993 10.118 10.3004 10.118 9.94286 10.261L8.92786 10.667C8.33182 10.9054 7.6669 10.9054 7.07086 10.667L6.05686 10.261C5.69929 10.118 5.30043 10.118 4.94286 10.261L3.92786 10.667C3.33182 10.9054 2.6669 10.9054 2.07086 10.667L0.31386 9.96399C0.190818 9.91464 0.092413 9.81844 0.0402813 9.69655C-0.0118504 9.57466 -0.0134408 9.43705 0.0358596 9.31399V9.31399Z" fill="#6A778B"/>
</svg>
