<svg width="14" height="12" viewBox="0 0 14 12" fill="none" xmlns="http://www.w3.org/2000/svg">
    <path d="M12.5908 11.1066L12.6584 11.25H12.817H13.75V11.75H0.25V11.25H1.183H1.34156L1.40915 11.1066L6.32648 0.671004C6.38765 0.545562 6.48262 0.439669 6.60071 0.365248C6.71918 0.290591 6.85617 0.250588 6.9962 0.249769C7.13622 0.248949 7.27368 0.287345 7.39301 0.36061C7.51156 0.433401 7.60752 0.537723 7.67018 0.661895L12.5908 11.1066ZM7.22116 0.88296L6.99478 0.402488L6.76876 0.88313L4.29626 6.14113L4.2046 6.33607L4.38385 6.45554L5.36135 7.10704L5.50002 7.19946L5.63868 7.10703L7 6.19948L8.36133 7.10703L8.5 7.19948L8.63867 7.10703L9.61217 6.45803L9.79153 6.33846L9.69966 6.14346L7.22116 0.88296ZM4.23119 6.95451L3.98978 6.79354L3.86628 7.05611L2.06128 10.8936L1.89364 11.25H2.2875H11.711H12.105L11.9372 10.8935L10.1312 7.05801L10.0076 6.79565L9.76634 6.95649L8.50001 7.80056L7.13868 6.893L7 6.80055L6.86132 6.893L5.50001 7.80054L4.23119 6.95451Z" fill="#6A778B" stroke="#6A778B" stroke-width="0.5"/>
</svg>
