<svg width="16" height="16" viewBox="0 0 16 16" fill="none" xmlns="http://www.w3.org/2000/svg">
    <path d="M7.99935 14.6667C5.05402 14.6667 2.66602 12.9453 2.66602 9.99999V9.94133C2.66602 8.52933 3.45868 7.39999 4.66602 6.66666C5.82068 5.96533 6.50402 4.67333 6.33268 3.33333L5.99935 1.33333L7.23535 1.86333C9.46164 2.81732 11.3162 4.4711 12.518 6.57399C13.052 7.50857 13.3328 8.56631 13.3327 9.64266V9.99999C13.3327 11.0413 13.034 11.93 12.518 12.6433" stroke="#6A778B" stroke-width="1.33333" stroke-linecap="round" stroke-linejoin="round"/>
    <path d="M8 14.6667C6.89533 14.6667 6 13.7113 6 12.5333C6 11.6 6.67733 10.8527 7.27333 10.168L8 9.33334L8.72667 10.168C9.32267 10.8533 10 11.6 10 12.5333C10 13.7113 9.10467 14.6667 8 14.6667Z" stroke="#6A778B" stroke-width="1.33333" stroke-linecap="round" stroke-linejoin="round"/>
</svg>
